<svg width="25" height="25" viewBox="0 0 25 25" fill="none" xmlns="http://www.w3.org/2000/svg">
<circle cx="12" cy="13" r="10" fill="#2979FF"/>
<path d="M12.0011 10.4361C10.5823 10.4361 9.43781 11.5808 9.43781 13C9.43781 14.4192 10.5823 15.5639 12.0011 15.5639C13.42 15.5639 14.5644 14.4192 14.5644 13C14.5644 11.5808 13.42 10.4361 12.0011 10.4361ZM12.0011 14.6669C11.0842 14.6669 10.3346 13.9193 10.3346 13C10.3346 12.0807 11.082 11.3331 12.0011 11.3331C12.9202 11.3331 13.6676 12.0807 13.6676 13C13.6676 13.9193 12.918 14.6669 12.0011 14.6669V14.6669ZM15.2672 10.3313C15.2672 10.6637 14.9994 10.9293 14.6693 10.9293C14.3369 10.9293 14.0714 10.6615 14.0714 10.3313C14.0714 10.001 14.3391 9.73324 14.6693 9.73324C14.9994 9.73324 15.2672 10.001 15.2672 10.3313ZM16.9649 10.9382C16.9269 10.1371 16.744 9.42754 16.1573 8.84291C15.5728 8.25828 14.8634 8.07531 14.0625 8.03514C13.237 7.98829 10.763 7.98829 9.93753 8.03514C9.13887 8.07308 8.42945 8.25605 7.84272 8.84068C7.256 9.4253 7.07529 10.1349 7.03514 10.936C6.98829 11.7616 6.98829 14.2362 7.03514 15.0618C7.07306 15.8629 7.256 16.5725 7.84272 17.1571C8.42945 17.7417 9.13664 17.9247 9.93753 17.9649C10.763 18.0117 13.237 18.0117 14.0625 17.9649C14.8634 17.9269 15.5728 17.7439 16.1573 17.1571C16.7418 16.5725 16.9247 15.8629 16.9649 15.0618C17.0117 14.2362 17.0117 11.7638 16.9649 10.9382V10.9382ZM15.8985 15.9477C15.7245 16.385 15.3876 16.722 14.9481 16.8982C14.29 17.1593 12.7284 17.0991 12.0011 17.0991C11.2738 17.0991 9.70998 17.1571 9.0541 16.8982C8.61684 16.7242 8.27998 16.3873 8.10374 15.9477C7.84272 15.2894 7.90296 13.7274 7.90296 13C7.90296 12.2726 7.84495 10.7084 8.10374 10.0523C8.27775 9.61497 8.61461 9.27803 9.0541 9.10175C9.71221 8.84068 11.2738 8.90093 12.0011 8.90093C12.7284 8.90093 14.2922 8.84291 14.9481 9.10175C15.3854 9.2758 15.7223 9.61274 15.8985 10.0523C16.1595 10.7106 16.0993 12.2726 16.0993 13C16.0993 13.7274 16.1595 15.2916 15.8985 15.9477Z" fill="white"/>
</svg>
