<svg width="25" height="25" viewBox="0 0 25 25" fill="none" xmlns="http://www.w3.org/2000/svg">
<circle cx="12" cy="13" r="10" fill="#2979FF"/>
<path d="M9.23839 17H7.16518V10.3235H9.23839V17ZM8.20067 9.41278C7.53772 9.41278 7 8.86366 7 8.2007C7 7.88225 7.1265 7.57685 7.35167 7.35168C7.57684 7.1265 7.88223 7 8.20067 7C8.51911 7 8.8245 7.1265 9.04967 7.35168C9.27484 7.57685 9.40134 7.88225 9.40134 8.2007C9.40134 8.86366 8.86339 9.41278 8.20067 9.41278ZM16.9978 17H14.929V13.7499C14.929 12.9754 14.9134 11.982 13.8511 11.982C12.7732 11.982 12.608 12.8236 12.608 13.6941V17H10.5371V10.3235H12.5254V11.2342H12.5545C12.8313 10.7097 13.5074 10.1561 14.5161 10.1561C16.6143 10.1561 17 11.5378 17 13.3325V17H16.9978Z" fill="white"/>
</svg>
