<svg width="26" height="26" viewBox="0 0 26 26" fill="none" xmlns="http://www.w3.org/2000/svg">
<circle cx="12" cy="13" r="10" fill="#2979FF"/>
<path d="M16.9721 11.4922C16.9785 11.6015 16.9785 11.7109 16.9785 11.8203C16.9785 15.1562 14.9163 19 11.1472 19C9.98604 19 8.90737 18.5859 8 17.8672C8.16498 17.8906 8.3236 17.8984 8.49492 17.8984C9.45303 17.8984 10.335 17.5 11.0393 16.8203C10.1383 16.7969 9.38325 16.0703 9.12309 15.0703C9.25 15.0937 9.3769 15.1094 9.51016 15.1094C9.69417 15.1094 9.87819 15.0781 10.0495 15.0234C9.11041 14.789 8.40608 13.7734 8.40608 12.5469V12.5156C8.67891 12.7031 8.9962 12.8203 9.33247 12.8359C8.78043 12.3828 8.41877 11.6094 8.41877 10.7344C8.41877 10.2656 8.52028 9.83593 8.69795 9.46093C9.70684 10.9922 11.2234 11.9922 12.9238 12.1016C12.8921 11.9141 12.8731 11.7188 12.8731 11.5234C12.8731 10.1328 13.7868 9 14.9226 9C15.5127 9 16.0457 9.30469 16.4201 9.79687C16.8832 9.6875 17.3274 9.47656 17.7208 9.1875C17.5685 9.77345 17.2449 10.2656 16.8198 10.5781C17.2322 10.5235 17.632 10.3828 18 10.1875C17.7209 10.6875 17.3719 11.1328 16.9721 11.4922V11.4922Z" fill="white"/>
</svg>
